<svg xmlns="http://www.w3.org/2000/svg" viewBox="0 0 400 120">
  <!-- Background -->
  <rect width="400" height="120" fill="#173647"/>
  
  <!-- Magical Sparkle Effects -->
  <g opacity="0.6">
    <path d="M50 20 L55 30 L65 25 L60 35 L70 40 L58 38 L55 50 L52 38 L40 35 L52 30 Z" fill="#85EA2D"/>
    <path d="M330 80 L335 90 L345 85 L340 95 L350 100 L338 98 L335 110 L332 98 L320 95 L332 90 Z" fill="#85EA2D"/>
  </g>

  <!-- API Text -->
  <text x="200" y="60" text-anchor="middle" font-family="Arial, sans-serif" font-size="40" font-weight="bold" fill="#85EA2D">
    API Sorcery
  </text>

  <!-- Powered by Section -->
  <text x="200" y="100" text-anchor="middle" font-family="Arial, sans-serif" font-size="16" fill="white">
    Powered by 
    <tspan font-weight="bold" fill="#85EA2D">Kusho.AI</tspan> 
    and 
    <tspan font-weight="bold" fill="#85EA2D">Swagger</tspan>
  </text>

  <!-- Magical Code/API Symbols -->
  <g stroke="#85EA2D" stroke-width="2" fill="none" opacity="0.5">
    <path d="M100 20 Q120 30, 110 40 T130 60" />
    <path d="M300 70 Q280 80, 290 90 T270 110" />
    <circle cx="90" cy="50" r="5" fill="#85EA2D"/>
    <circle cx="310" cy="90" r="5" fill="#85EA2D"/>
  </g>
</svg>